<svg width="16" height="16" viewBox="0 0 16 16" fill="none" xmlns="http://www.w3.org/2000/svg">
<path fill-rule="evenodd" clip-rule="evenodd" d="M12.6049 3.70634C12.6049 3.70634 13.962 2.57436 14.9167 1.86331C15.0144 1.69562 15.0933 1.49705 15.1569 1.2811C15.2752 1.35514 15.3869 1.43344 15.4909 1.51624C15.6498 6.42816 13.694 10.0936 11.7511 12.499C12.3281 10.6155 12.2979 9.08624 12.2321 8.35956L10.021 9.86536C10.7254 11.1527 10.9831 12.4682 11.0772 13.2871C9.50693 15.0225 8.11235 15.9063 8.0732 15.9311L8.07239 15.9316L8.00424 16L7.9361 15.9316C7.9361 15.9316 0.199581 11.0904 0.509042 1.51055C2.64404 -0.189569 8.00424 0.00692687 8.00424 0.00692687L8.01278 0.0126224L8.0199 0.0124329C8.23473 0.00669459 10.8304 -0.0626316 13.0688 0.474304C11.3643 1.98886 9.24906 3.82001 8.66121 4.11592C5.98958 3.15457 5.26148 5.54936 5.26148 5.54936L2.74566 7.46068C2.74566 7.46068 3.64093 6.99424 5.19349 6.232C6.30124 6.4766 7.20217 6.89752 7.9331 7.42084L12.6134 3.7291L12.6049 3.70634ZM12.6025 7.62596C12.4558 7.73452 12.3398 7.81852 12.2456 7.88668L12.1967 7.92212L12.1938 7.89932C12.1938 7.89932 11.595 8.3578 12.1967 7.92212L12.1995 7.9278L9.88945 9.52812C9.495 8.8732 8.98415 8.24104 8.31441 7.69716L12.8097 4.13488C13.0736 4.98628 13.5475 6.934 12.6025 7.62596Z" fill="#009688"/>
</svg>
